<svg width="1920" height="895" viewBox="0 0 1920 895" fill="none" xmlns="http://www.w3.org/2000/svg">
<g clip-path="url(#clip0_3448_690)">
<path d="M418.407 148.751C518.042 148.751 595.231 206.914 633.846 284.907H811.917C758.379 109.135 613.936 -0.994385 418.407 -0.994385C183.059 -0.994385 0 195.803 0 447.003C0 698.202 183.059 895 418.407 895C610.195 895 755.885 782.391 810.67 607.859H633.846C595.231 685.809 516.795 746.494 418.407 746.494C276.458 746.494 164.353 610.338 164.353 447.003C164.353 283.667 276.415 148.751 418.407 148.751Z" fill="#D9DADA"/>
<path d="M1280.42 0.245117C1035.09 0.245117 857.024 198.239 857.024 447.003C857.024 695.767 1035.09 895 1280.42 895C1525.75 895 1702.57 697.006 1702.57 447.003C1702.57 197 1524.5 0.245117 1280.42 0.245117ZM1280.42 740.34C1137.22 740.34 1022.62 607.902 1022.62 447.046C1022.62 286.189 1137.18 154.991 1280.42 154.991C1423.66 154.991 1536.97 287.428 1536.97 447.046C1536.97 606.663 1422.41 740.34 1280.42 740.34Z" fill="#D9DADA"/>
<path d="M2331.94 632.643L1980.75 21.2678H1782.77V880.167H1947.16V268.792L2299.56 880.167H2497.59V21.2678H2331.94V632.643Z" fill="#D9DADA"/>
</g>
<defs>
<clipPath id="clip0_3448_690">
<rect width="1920" height="895" fill="white"/>
</clipPath>
</defs>
</svg>
