<svg width="182" height="60" viewBox="0 0 182 60" fill="none" xmlns="http://www.w3.org/2000/svg">
<g clip-path="url(#clip0_3156_1036)">
<path d="M0 3.32227V59.9854H47.5035V3.32227H0ZM35.5625 11.1397L23.7496 25.4797L11.9389 11.1397H35.5625ZM7.82274 18.445L18.6843 31.6329L7.82274 44.8207V18.4471V18.445ZM11.9389 52.1239L23.7517 37.784L35.5646 52.1239H11.9389ZM39.6786 44.8186L28.8171 31.6308L39.6786 18.4429V44.8165V44.8186Z" fill="#575757"/>
<path d="M55.7821 18.0274C55.6288 18.0274 55.5091 17.9812 55.4251 17.891C55.3411 17.8007 55.2991 17.6853 55.2991 17.5447V3.84059C55.2991 3.68739 55.3411 3.56357 55.4251 3.47333C55.5091 3.38308 55.6288 3.33691 55.7821 3.33691H60.5492C61.992 3.33691 63.1533 3.55307 64.0353 3.98749C64.9174 4.42191 65.5621 5.06199 65.9674 5.90774C66.3727 6.75349 66.5827 7.79232 66.5974 9.02422C66.6121 9.65381 66.6184 10.2057 66.6184 10.6821C66.6184 11.1585 66.6121 11.7042 66.5974 12.3191C66.5701 13.6055 66.3559 14.6737 65.9569 15.5195C65.5579 16.3652 64.9279 16.9948 64.0668 17.4083C63.2058 17.8217 62.0676 18.0274 60.6542 18.0274H55.7821ZM57.3571 16.2435H60.5492C61.5153 16.2435 62.286 16.1113 62.8593 15.8448C63.4326 15.5783 63.8505 15.1522 64.1088 14.5646C64.3672 13.977 64.5037 13.2005 64.5184 12.2351C64.5457 11.8154 64.5604 11.4481 64.5604 11.1333V10.189C64.5604 9.87416 64.5457 9.5132 64.5184 9.10816C64.4911 7.75035 64.1676 6.7472 63.5523 6.09662C62.937 5.44604 61.8996 5.12075 60.4442 5.12075H57.3571V16.2435Z" fill="#575757"/>
<path d="M69.6383 18.0274C69.485 18.0274 69.3653 17.9812 69.2813 17.891C69.1973 17.8007 69.1553 17.6853 69.1553 17.5447V3.8196C69.1553 3.67899 69.1973 3.56357 69.2813 3.47333C69.3653 3.38308 69.485 3.33691 69.6383 3.33691H70.7513C70.9046 3.33691 71.0243 3.38308 71.1083 3.47333C71.1923 3.56357 71.2343 3.67899 71.2343 3.8196V17.5447C71.2343 17.6853 71.1923 17.8007 71.1083 17.891C71.0243 17.9812 70.9046 18.0274 70.7513 18.0274H69.6383Z" fill="#575757"/>
<path d="M79.0403 18.2371C77.8223 18.2371 76.7995 18.0482 75.9742 17.6705C75.1489 17.2927 74.5147 16.8059 74.0736 16.2119C73.6326 15.618 73.3974 14.9905 73.3701 14.3337C73.3701 14.2224 73.4163 14.1196 73.5066 14.0294C73.5969 13.9391 73.7061 13.893 73.8321 13.893H74.9032C75.0712 13.893 75.1972 13.9349 75.2812 14.0189C75.3652 14.1028 75.4219 14.2014 75.4492 14.3127C75.5332 14.6485 75.7075 14.98 75.9742 15.3095C76.2409 15.639 76.621 15.9118 77.1187 16.128C77.6164 16.3442 78.257 16.4533 79.0403 16.4533C80.2436 16.4533 81.1299 16.2392 81.6969 15.8132C82.2639 15.3872 82.5474 14.8163 82.5474 14.1028C82.5474 13.6138 82.3962 13.2172 82.0959 12.9171C81.7956 12.617 81.3357 12.3463 80.7203 12.1091C80.105 11.872 79.307 11.6117 78.3263 11.3326C77.3035 11.0388 76.4572 10.7177 75.7852 10.3672C75.1132 10.0168 74.6134 9.58445 74.2836 9.06609C73.9539 8.54773 73.7901 7.89085 73.7901 7.09337C73.7901 6.33786 73.9938 5.6621 74.3991 5.06819C74.8045 4.47428 75.3925 4.00208 76.1632 3.65161C76.9339 3.30114 77.858 3.12695 78.9353 3.12695C79.8026 3.12695 80.5628 3.24238 81.2139 3.47323C81.8649 3.70408 82.4067 4.01258 82.8414 4.39663C83.2761 4.78068 83.6037 5.19411 83.8284 5.63482C84.0531 6.07554 84.1707 6.50576 84.1854 6.92548C84.1854 7.02412 84.1497 7.11856 84.0804 7.2088C84.0111 7.29904 83.8977 7.34521 83.7444 7.34521H82.6314C82.5327 7.34521 82.4319 7.31793 82.3269 7.26126C82.2219 7.2046 82.1421 7.09967 82.0854 6.94647C82.0014 6.37354 81.6801 5.89086 81.1194 5.49841C80.5586 5.10597 79.832 4.91079 78.9353 4.91079C78.0386 4.91079 77.2867 5.08498 76.7197 5.43545C76.1527 5.78592 75.8692 6.33157 75.8692 7.07239C75.8692 7.54878 76.0015 7.94332 76.2682 8.25812C76.5349 8.57291 76.9549 8.84993 77.5282 9.08708C78.1016 9.32422 78.8513 9.57606 79.7753 9.84259C80.8946 10.1511 81.8124 10.4764 82.5264 10.8185C83.2404 11.1605 83.7696 11.5886 84.1119 12.0986C84.4543 12.6086 84.6265 13.2634 84.6265 14.0608C84.6265 14.9423 84.3955 15.6957 83.9334 16.3169C83.4714 16.9402 82.8246 17.4145 81.9909 17.7439C81.1572 18.0734 80.1743 18.2371 79.0403 18.2371Z" fill="#575757"/>
<path d="M87.264 18.0274C87.1107 18.0274 86.991 17.9812 86.907 17.891C86.823 17.8007 86.781 17.6853 86.781 17.5447V3.84059C86.781 3.68739 86.823 3.56357 86.907 3.47333C86.991 3.38308 87.1107 3.33691 87.264 3.33691H95.9373C96.0906 3.33691 96.2103 3.38308 96.2943 3.47333C96.3783 3.56357 96.4203 3.68739 96.4203 3.84059V4.63807C96.4203 4.79127 96.3783 4.91089 96.2943 4.99484C96.2103 5.07878 96.0906 5.12075 95.9373 5.12075H88.7971V9.71677H95.4753C95.6286 9.71677 95.7483 9.76294 95.8323 9.85318C95.9163 9.94342 95.9583 10.0672 95.9583 10.2204V10.9969C95.9583 11.1375 95.9163 11.253 95.8323 11.3432C95.7483 11.4335 95.6286 11.4796 95.4753 11.4796H88.7971V16.2435H96.1053C96.2586 16.2435 96.3783 16.2855 96.4623 16.3694C96.5463 16.4534 96.5883 16.573 96.5883 16.7262V17.5447C96.5883 17.6853 96.5463 17.8007 96.4623 17.891C96.3783 17.9812 96.2586 18.0274 96.1053 18.0274H87.264Z" fill="#575757"/>
<path d="M99.3016 18.0273C99.1483 18.0273 99.0286 17.9811 98.9446 17.8909C98.8606 17.8006 98.8186 17.6852 98.8186 17.5446V3.8405C98.8186 3.6873 98.8606 3.56348 98.9446 3.47324C99.0286 3.383 99.1483 3.33683 99.3016 3.33683H100.268C100.436 3.33683 100.562 3.37461 100.646 3.45226C100.73 3.52991 100.778 3.58867 100.793 3.63064L107.765 14.3337V3.8405C107.765 3.6873 107.807 3.56348 107.891 3.47324C107.975 3.383 108.092 3.33683 108.248 3.33683H109.256C109.409 3.33683 109.533 3.383 109.623 3.47324C109.714 3.56348 109.76 3.6873 109.76 3.8405V17.5236C109.76 17.6642 109.714 17.7817 109.623 17.8804C109.533 17.979 109.418 18.0273 109.277 18.0273H108.269C108.116 18.0273 108 17.9853 107.922 17.9014C107.845 17.8174 107.792 17.7608 107.765 17.7335L100.814 7.13536V17.5446C100.814 17.6852 100.767 17.8006 100.677 17.8909C100.587 17.9811 100.463 18.0273 100.31 18.0273H99.3016ZM105.371 2.39245C105.035 2.39245 104.747 2.33368 104.51 2.21406C104.272 2.09444 104.058 1.97692 103.869 1.85729C103.68 1.73767 103.481 1.67891 103.271 1.67891C103.103 1.67891 102.981 1.72718 102.903 1.82581C102.826 1.92445 102.756 2.02518 102.693 2.13012C102.63 2.23505 102.521 2.28751 102.368 2.28751H101.696C101.597 2.28751 101.513 2.25184 101.444 2.18258C101.374 2.11333 101.339 2.03568 101.339 1.95173C101.339 1.74187 101.376 1.52151 101.454 1.29066C101.532 1.05981 101.649 0.84575 101.811 0.650577C101.973 0.455404 102.164 0.298006 102.389 0.178384C102.613 0.0587618 102.865 0 103.145 0C103.495 0 103.789 0.0608605 104.027 0.178384C104.264 0.298006 104.482 0.41553 104.678 0.535152C104.873 0.654774 105.077 0.713536 105.287 0.713536C105.455 0.713536 105.575 0.66107 105.644 0.556139C105.713 0.451207 105.78 0.346275 105.843 0.241343C105.906 0.136411 106.016 0.0839454 106.169 0.0839454H106.841C106.967 0.0839454 107.057 0.119622 107.114 0.188877C107.171 0.258132 107.198 0.342078 107.198 0.440714C107.198 0.635887 107.156 0.849948 107.072 1.0808C106.988 1.31165 106.866 1.52571 106.704 1.72088C106.543 1.91605 106.352 2.07765 106.127 2.20357C105.902 2.32949 105.65 2.39245 105.371 2.39245Z" fill="#575757"/>
<path d="M118.158 18.2371C116.955 18.2371 115.926 18.0315 115.071 17.618C114.216 17.2046 113.559 16.5687 113.097 15.7083C112.635 14.8478 112.377 13.767 112.32 12.4659C112.305 11.851 112.299 11.2592 112.299 10.6925C112.299 10.1259 112.305 9.53409 112.32 8.91919C112.377 7.63272 112.646 6.55822 113.129 5.69778C113.612 4.83734 114.284 4.19306 115.145 3.76704C116.006 3.34101 117.01 3.12695 118.158 3.12695C119.307 3.12695 120.29 3.34101 121.151 3.76704C122.012 4.19306 122.688 4.83734 123.177 5.69778C123.667 6.55822 123.933 7.63272 123.975 8.91919C124.003 9.53409 124.017 10.1259 124.017 10.6925C124.017 11.2592 124.003 11.851 123.975 12.4659C123.933 13.767 123.677 14.8478 123.209 15.7083C122.741 16.5687 122.079 17.2046 121.224 17.618C120.37 18.0315 119.349 18.2371 118.158 18.2371ZM118.158 16.4533C119.223 16.4533 120.092 16.1322 120.773 15.4879C121.451 14.8436 121.819 13.8027 121.875 12.3609C121.903 11.7314 121.917 11.1689 121.917 10.6715C121.917 10.1742 121.903 9.61803 121.875 9.00313C121.848 8.03776 121.67 7.25497 121.34 6.65266C121.01 6.05035 120.573 5.60964 120.027 5.33052C119.481 5.0514 118.858 4.91079 118.158 4.91079C117.459 4.91079 116.835 5.0514 116.289 5.33052C115.743 5.60964 115.306 6.05035 114.977 6.65266C114.647 7.25497 114.462 8.03776 114.42 9.00313C114.405 9.61803 114.399 10.1742 114.399 10.6715C114.399 11.1689 114.405 11.7314 114.42 12.3609C114.477 13.8027 114.846 14.8436 115.533 15.4879C116.22 16.1322 117.094 16.4533 118.158 16.4533Z" fill="#575757"/>
<path d="M55.7821 39.0137C55.6288 39.0137 55.5091 38.9675 55.4251 38.8773C55.3411 38.787 55.2991 38.6716 55.2991 38.531V24.8269C55.2991 24.6737 55.3411 24.5499 55.4251 24.4597C55.5091 24.3694 55.6288 24.3232 55.7821 24.3232H60.5492C61.992 24.3232 63.1533 24.5394 64.0353 24.9738C64.9174 25.4082 65.5621 26.0483 65.9674 26.8941C66.3727 27.7398 66.5827 28.7786 66.5974 30.0105C66.6121 30.6401 66.6184 31.1921 66.6184 31.6685C66.6184 32.1449 66.6121 32.6905 66.5974 33.3054C66.5701 34.5919 66.3559 35.6601 65.9569 36.5058C65.5579 37.3516 64.9279 37.9812 64.0668 38.3946C63.2058 38.808 62.0676 39.0137 60.6542 39.0137H55.7821ZM57.3571 37.2299H60.5492C61.5153 37.2299 62.286 37.0976 62.8593 36.8311C63.4326 36.5646 63.8505 36.1386 64.1088 35.5509C64.3672 34.9633 64.5037 34.1868 64.5184 33.2215C64.5457 32.8017 64.5604 32.4345 64.5604 32.1197V31.1753C64.5604 30.8605 64.5457 30.4995 64.5184 30.0945C64.4911 28.7367 64.1676 27.7335 63.5523 27.0829C62.937 26.4324 61.8996 26.1071 60.4442 26.1071H57.3571V37.2299Z" fill="#575757"/>
<path d="M69.6383 39.0137C69.485 39.0137 69.3653 38.9675 69.2813 38.8773C69.1973 38.787 69.1553 38.6716 69.1553 38.531V24.8269C69.1553 24.6737 69.1973 24.5499 69.2813 24.4597C69.3653 24.3694 69.485 24.3232 69.6383 24.3232H78.3116C78.4649 24.3232 78.5846 24.3694 78.6686 24.4597C78.7526 24.5499 78.7946 24.6737 78.7946 24.8269V25.6244C78.7946 25.7776 78.7526 25.8972 78.6686 25.9812C78.5846 26.0651 78.4649 26.1071 78.3116 26.1071H71.1713V30.7031H77.8495C78.0028 30.7031 78.1225 30.7493 78.2066 30.8395C78.2906 30.9297 78.3326 31.0536 78.3326 31.2068V31.9833C78.3326 32.1239 78.2906 32.2393 78.2066 32.3295C78.1225 32.4198 78.0028 32.4659 77.8495 32.4659H71.1713V37.2299H78.4796C78.6329 37.2299 78.7526 37.2718 78.8366 37.3558C78.9206 37.4397 78.9626 37.5593 78.9626 37.7125V38.531C78.9626 38.6716 78.9206 38.787 78.8366 38.8773C78.7526 38.9675 78.6329 39.0137 78.4796 39.0137H69.6383Z" fill="#575757"/>
<path d="M86.0901 39.2235C84.8721 39.2235 83.8493 39.0346 83.024 38.6568C82.1987 38.2791 81.5645 37.7922 81.1234 37.1983C80.6824 36.6044 80.4472 35.9769 80.4199 35.32C80.4199 35.2088 80.4661 35.1059 80.5564 35.0157C80.6467 34.9254 80.7559 34.8793 80.8819 34.8793H81.953C82.121 34.8793 82.247 34.9213 82.331 35.0052C82.415 35.0891 82.4717 35.1878 82.499 35.299C82.583 35.6348 82.7573 35.9664 83.024 36.2959C83.2907 36.6253 83.6708 36.8982 84.1685 37.1143C84.6663 37.3305 85.3068 37.4396 86.0901 37.4396C87.2934 37.4396 88.1797 37.2256 88.7467 36.7995C89.3137 36.3735 89.5972 35.8027 89.5972 35.0891C89.5972 34.6002 89.446 34.2035 89.1457 33.9034C88.8454 33.6033 88.3855 33.3326 87.7701 33.0954C87.1548 32.8583 86.3568 32.5981 85.3761 32.3189C84.3533 32.0251 83.507 31.704 82.835 31.3536C82.163 31.0031 81.6632 30.5708 81.3335 30.0524C81.0037 29.5341 80.8399 28.8772 80.8399 28.0797C80.8399 27.3242 81.0436 26.6484 81.449 26.0545C81.8543 25.4606 82.4423 24.9884 83.213 24.6379C83.9837 24.2875 84.9078 24.1133 85.9851 24.1133C86.8524 24.1133 87.6126 24.2287 88.2637 24.4596C88.9147 24.6904 89.4565 24.9989 89.8912 25.383C90.3259 25.767 90.6535 26.1804 90.8782 26.6211C91.1029 27.0619 91.2206 27.4921 91.2353 27.9118C91.2353 28.0104 91.1996 28.1049 91.1303 28.1951C91.0609 28.2854 90.9475 28.3315 90.7942 28.3315H89.6812C89.5825 28.3315 89.4817 28.3043 89.3767 28.2476C89.2717 28.1909 89.1919 28.086 89.1352 27.9328C89.0512 27.3599 88.7299 26.8772 88.1692 26.4847C87.6084 26.0923 86.8818 25.8971 85.9851 25.8971C85.0884 25.8971 84.3365 26.0713 83.7695 26.4218C83.2025 26.7723 82.919 27.3179 82.919 28.0587C82.919 28.5351 83.0513 28.9296 83.318 29.2444C83.5847 29.5592 84.0047 29.8363 84.578 30.0734C85.1514 30.3106 85.9011 30.5624 86.8251 30.8289C87.9445 31.1374 88.8622 31.4627 89.5762 31.8048C90.2902 32.1469 90.8194 32.575 91.1617 33.0849C91.5041 33.5949 91.6763 34.2497 91.6763 35.0472C91.6763 35.9286 91.4453 36.682 90.9832 37.3032C90.5212 37.9265 89.8744 38.4008 89.0407 38.7303C88.207 39.0598 87.2241 39.2235 86.0901 39.2235Z" fill="#575757"/>
<path d="M93.1778 39.0137C93.0665 39.0137 92.9678 38.9717 92.8838 38.8878C92.7998 38.8038 92.7578 38.7052 92.7578 38.594C92.7578 38.5247 92.7641 38.4471 92.7788 38.3631L97.987 24.7849C98.0437 24.6443 98.1193 24.5331 98.218 24.4492C98.3167 24.3652 98.4637 24.3232 98.659 24.3232H100.087C100.282 24.3232 100.429 24.3652 100.528 24.4492C100.627 24.5331 100.702 24.6443 100.759 24.7849L105.946 38.3631C105.974 38.4471 105.988 38.5247 105.988 38.594C105.988 38.7052 105.946 38.8038 105.862 38.8878C105.778 38.9717 105.68 39.0137 105.568 39.0137H104.497C104.329 39.0137 104.207 38.9717 104.13 38.8878C104.052 38.8038 103.999 38.7262 103.972 38.6569L102.817 35.6769H95.9289L94.7739 38.6569C94.7592 38.7262 94.7109 38.8038 94.6269 38.8878C94.5429 38.9717 94.4169 39.0137 94.2489 39.0137H93.1778ZM96.5379 33.872H102.208L99.373 26.4219L96.5379 33.872Z" fill="#575757"/>
<path d="M108.41 39.0137C108.256 39.0137 108.137 38.9675 108.053 38.8773C107.969 38.787 107.927 38.6716 107.927 38.531V24.8269C107.927 24.6737 107.969 24.5499 108.053 24.4597C108.137 24.3694 108.256 24.3232 108.41 24.3232H113.534C115.115 24.3232 116.369 24.6947 117.293 25.4355C118.217 26.1763 118.679 27.276 118.679 28.7304C118.679 29.807 118.408 30.6863 117.87 31.3642C117.331 32.042 116.6 32.5142 115.676 32.7807L118.91 38.3631C118.952 38.4471 118.973 38.5247 118.973 38.594C118.973 38.7052 118.927 38.8038 118.836 38.8878C118.746 38.9717 118.643 39.0137 118.532 39.0137H117.524C117.287 39.0137 117.11 38.9507 116.999 38.8248C116.885 38.6989 116.789 38.573 116.705 38.4471L113.66 33.1165H109.985V38.531C109.985 38.6716 109.938 38.787 109.848 38.8773C109.758 38.9675 109.634 39.0137 109.481 39.0137H108.41ZM109.985 31.3327H113.45C114.5 31.3327 115.283 31.1123 115.802 30.6716C116.32 30.2309 116.579 29.5761 116.579 28.7094C116.579 27.8427 116.323 27.2047 115.812 26.7577C115.302 26.3106 114.514 26.0861 113.45 26.0861H109.985V31.3327Z" fill="#575757"/>
<path d="M121.602 39.0137C121.449 39.0137 121.329 38.9675 121.245 38.8773C121.161 38.787 121.119 38.6716 121.119 38.531V24.8269C121.119 24.6737 121.161 24.5499 121.245 24.4597C121.329 24.3694 121.449 24.3232 121.602 24.3232H126.726C128.308 24.3232 129.561 24.6947 130.485 25.4355C131.409 26.1763 131.871 27.276 131.871 28.7304C131.871 29.807 131.601 30.6863 131.063 31.3642C130.523 32.042 129.792 32.5142 128.868 32.7807L132.102 38.3631C132.144 38.4471 132.165 38.5247 132.165 38.594C132.165 38.7052 132.119 38.8038 132.029 38.8878C131.939 38.9717 131.836 39.0137 131.724 39.0137H130.716C130.479 39.0137 130.303 38.9507 130.191 38.8248C130.078 38.6989 129.981 38.573 129.897 38.4471L126.852 33.1165H123.177V38.531C123.177 38.6716 123.131 38.787 123.041 38.8773C122.95 38.9675 122.826 39.0137 122.673 39.0137H121.602ZM123.177 31.3327H126.642C127.692 31.3327 128.476 31.1123 128.994 30.6716C129.513 30.2309 129.771 29.5761 129.771 28.7094C129.771 27.8427 129.515 27.2047 129.005 26.7577C128.495 26.3106 127.707 26.0861 126.642 26.0861H123.177V31.3327Z" fill="#575757"/>
<path d="M139.732 39.2235C138.529 39.2235 137.5 39.0178 136.645 38.6044C135.79 38.1909 135.133 37.555 134.671 36.6946C134.209 35.8342 133.951 34.7534 133.894 33.4522C133.879 32.8373 133.873 32.2455 133.873 31.6789C133.873 31.1122 133.879 30.5204 133.894 29.9055C133.951 28.6191 134.219 27.5445 134.702 26.6841C135.185 25.8237 135.857 25.1794 136.718 24.7534C137.579 24.3273 138.583 24.1133 139.732 24.1133C140.881 24.1133 141.864 24.3273 142.725 24.7534C143.586 25.1794 144.262 25.8237 144.751 26.6841C145.24 27.5445 145.507 28.6191 145.549 29.9055C145.576 30.5204 145.591 31.1122 145.591 31.6789C145.591 32.2455 145.576 32.8373 145.549 33.4522C145.507 34.7534 145.251 35.8342 144.783 36.6946C144.314 37.555 143.653 38.1909 142.798 38.6044C141.943 39.0178 140.923 39.2235 139.732 39.2235ZM139.732 37.4396C140.797 37.4396 141.666 37.1185 142.347 36.4742C143.025 35.83 143.392 34.789 143.449 33.3473C143.476 32.7177 143.491 32.1553 143.491 31.6579C143.491 31.1605 143.476 30.6044 143.449 29.9895C143.422 29.0241 143.243 28.2413 142.914 27.639C142.584 27.0367 142.147 26.596 141.601 26.3168C141.055 26.0377 140.431 25.8971 139.732 25.8971C139.033 25.8971 138.409 26.0377 137.863 26.3168C137.317 26.596 136.88 27.0367 136.55 27.639C136.221 28.2413 136.036 29.0241 135.994 29.9895C135.979 30.6044 135.973 31.1605 135.973 31.6579C135.973 32.1553 135.979 32.7177 135.994 33.3473C136.051 34.789 136.42 35.83 137.107 36.4742C137.794 37.1185 138.667 37.4396 139.732 37.4396Z" fill="#575757"/>
<path d="M148.592 39.0137C148.439 39.0137 148.319 38.9675 148.235 38.8773C148.151 38.787 148.109 38.6716 148.109 38.531V24.8059C148.109 24.6653 148.151 24.5499 148.235 24.4597C148.319 24.3694 148.439 24.3232 148.592 24.3232H149.705C149.846 24.3232 149.962 24.3694 150.052 24.4597C150.142 24.5499 150.188 24.6653 150.188 24.8059V37.1879H157.161C157.314 37.1879 157.438 37.234 157.528 37.3243C157.618 37.4145 157.665 37.5384 157.665 37.6916V38.531C157.665 38.6716 157.618 38.787 157.528 38.8773C157.438 38.9675 157.314 39.0137 157.161 39.0137H148.592Z" fill="#575757"/>
<path d="M160.097 39.0137C159.943 39.0137 159.824 38.9675 159.74 38.8773C159.656 38.787 159.614 38.6716 159.614 38.531V24.8059C159.614 24.6653 159.656 24.5499 159.74 24.4597C159.824 24.3694 159.943 24.3232 160.097 24.3232H161.21C161.35 24.3232 161.466 24.3694 161.556 24.4597C161.646 24.5499 161.693 24.6653 161.693 24.8059V37.1879H168.665C168.818 37.1879 168.942 37.234 169.032 37.3243C169.123 37.4145 169.169 37.5384 169.169 37.6916V38.531C169.169 38.6716 169.123 38.787 169.032 38.8773C168.942 38.9675 168.818 39.0137 168.665 39.0137H160.097Z" fill="#575757"/>
<path d="M176.141 39.2235C174.938 39.2235 173.909 39.0178 173.054 38.6044C172.199 38.1909 171.542 37.555 171.08 36.6946C170.618 35.8342 170.359 34.7534 170.303 33.4522C170.288 32.8373 170.282 32.2455 170.282 31.6789C170.282 31.1122 170.288 30.5204 170.303 29.9055C170.359 28.6191 170.628 27.5445 171.111 26.6841C171.594 25.8237 172.266 25.1794 173.127 24.7534C173.988 24.3273 174.992 24.1133 176.141 24.1133C177.29 24.1133 178.272 24.3273 179.134 24.7534C179.995 25.1794 180.671 25.8237 181.16 26.6841C181.649 27.5445 181.916 28.6191 181.958 29.9055C181.985 30.5204 182 31.1122 182 31.6789C182 32.2455 181.985 32.8373 181.958 33.4522C181.916 34.7534 181.66 35.8342 181.192 36.6946C180.723 37.555 180.062 38.1909 179.207 38.6044C178.352 39.0178 177.332 39.2235 176.141 39.2235ZM176.141 37.4396C177.206 37.4396 178.075 37.1185 178.755 36.4742C179.434 35.83 179.801 34.789 179.858 33.3473C179.885 32.7177 179.9 32.1553 179.9 31.6579C179.9 31.1605 179.885 30.6044 179.858 29.9895C179.831 29.0241 179.652 28.2413 179.323 27.639C178.993 27.0367 178.556 26.596 178.01 26.3168C177.464 26.0377 176.84 25.8971 176.141 25.8971C175.442 25.8971 174.818 26.0377 174.272 26.3168C173.726 26.596 173.289 27.0367 172.959 27.639C172.63 28.2413 172.445 29.0241 172.403 29.9895C172.388 30.6044 172.382 31.1605 172.382 31.6579C172.382 32.1553 172.388 32.7177 172.403 33.3473C172.46 34.789 172.829 35.83 173.516 36.4742C174.203 37.1185 175.076 37.4396 176.141 37.4396Z" fill="#575757"/>
<path d="M57.7771 60C57.5944 60 57.4516 59.9518 57.3466 59.8531C57.2416 59.7545 57.1681 59.616 57.1261 59.4334L54.417 45.9601C54.4023 45.9035 54.396 45.8552 54.396 45.8132V45.7293C54.396 45.6181 54.438 45.5194 54.522 45.4355C54.606 45.3515 54.7047 45.3096 54.816 45.3096H55.908C56.2021 45.3096 56.3701 45.4292 56.4121 45.6663L58.5541 56.4953L60.8222 49.0661C60.8642 48.9402 60.9377 48.8248 61.0427 48.7199C61.1477 48.6149 61.2989 48.5625 61.4942 48.5625H62.2712C62.4812 48.5625 62.6346 48.6149 62.7333 48.7199C62.832 48.8248 62.895 48.9402 62.9223 49.0661L65.2113 56.4953L67.3324 45.6663C67.3744 45.4292 67.5487 45.3096 67.8574 45.3096H68.9494C69.0607 45.3096 69.1595 45.3515 69.2435 45.4355C69.3275 45.5194 69.3695 45.6181 69.3695 45.7293C69.3695 45.744 69.3653 45.7713 69.359 45.8132C69.3506 45.8552 69.3485 45.9035 69.3485 45.9601L66.6394 59.4334C66.5974 59.616 66.5239 59.7545 66.4189 59.8531C66.3139 59.9518 66.1711 60 65.9884 60H65.1693C64.974 60 64.8186 59.9518 64.7073 59.8531C64.596 59.7545 64.5183 59.6286 64.4763 59.4754L61.8722 51.4796L59.2891 59.4754C59.2324 59.6286 59.1526 59.7545 59.0476 59.8531C58.9426 59.9518 58.7914 60 58.5961 60H57.7771Z" fill="#575757"/>
<path d="M72.0072 60C71.8539 60 71.7342 59.9539 71.6502 59.8636C71.5662 59.7734 71.5242 59.6579 71.5242 59.5173V45.8132C71.5242 45.66 71.5662 45.5362 71.6502 45.446C71.7342 45.3557 71.8539 45.3096 72.0072 45.3096H80.6805C80.8338 45.3096 80.9535 45.3557 81.0375 45.446C81.1215 45.5362 81.1635 45.66 81.1635 45.8132V46.6107C81.1635 46.7639 81.1215 46.8835 81.0375 46.9675C80.9535 47.0514 80.8338 47.0934 80.6805 47.0934H73.5402V51.6894H80.2184C80.3717 51.6894 80.4914 51.7356 80.5754 51.8258C80.6594 51.9161 80.7015 52.0399 80.7015 52.1931V52.9696C80.7015 53.1102 80.6594 53.2256 80.5754 53.3159C80.4914 53.4061 80.3717 53.4523 80.2184 53.4523H73.5402V58.2162H80.8485C81.0018 58.2162 81.1215 58.2582 81.2055 58.3421C81.2895 58.426 81.3315 58.5457 81.3315 58.6989V59.5173C81.3315 59.6579 81.2895 59.7734 81.2055 59.8636C81.1215 59.9539 81.0018 60 80.8485 60H72.0072Z" fill="#575757"/>
<path d="M84.0448 60C83.8915 60 83.7718 59.9539 83.6878 59.8636C83.6038 59.7734 83.5618 59.6579 83.5618 59.5173V45.8132C83.5618 45.66 83.6038 45.5362 83.6878 45.446C83.7718 45.3557 83.8915 45.3096 84.0448 45.3096H89.799C90.849 45.3096 91.7058 45.4817 92.3715 45.8237C93.0373 46.1658 93.5266 46.6317 93.8416 47.2193C94.1566 47.8069 94.3141 48.4638 94.3141 49.192C94.3141 49.765 94.2196 50.2582 94.0306 50.6716C93.8416 51.085 93.6064 51.4208 93.3271 51.6789C93.0478 51.9371 92.7748 52.1364 92.508 52.277C93.0541 52.5436 93.5413 52.9759 93.9676 53.5782C94.3939 54.1805 94.6081 54.9066 94.6081 55.7608C94.6081 56.531 94.4338 57.2361 94.0831 57.8804C93.7324 58.5247 93.2116 59.0388 92.5185 59.4229C91.8255 59.8069 90.975 60 89.967 60H84.0448ZM85.6198 51.5215H89.484C90.3807 51.5215 91.059 51.3159 91.521 50.9024C91.983 50.489 92.214 49.9266 92.214 49.213C92.214 48.4995 91.983 47.9539 91.521 47.5761C91.059 47.1983 90.3807 47.0095 89.484 47.0095H85.6198V51.5215ZM85.6198 58.3001H89.694C90.5907 58.3001 91.2837 58.0546 91.773 57.5656C92.2623 57.0766 92.508 56.4743 92.508 55.7608C92.508 55.0472 92.2623 54.4072 91.773 53.9245C91.2837 53.4418 90.5907 53.2004 89.694 53.2004H85.6198V58.3001Z" fill="#575757"/>
</g>
<defs>
<clipPath id="clip0_3156_1036">
<rect width="182" height="60" fill="white"/>
</clipPath>
</defs>
</svg>
