<svg width="56" height="32" viewBox="0 0 56 32" fill="none" xmlns="http://www.w3.org/2000/svg">
<path d="M14.8092 5.34808C18.3365 5.34808 21.0694 7.42628 22.4359 10.2094H28.7388C26.8443 3.93363 21.7314 0 14.8092 0C6.47787 0 0 7.02804 0 16C0 24.972 6.47787 32 14.8092 32C21.5975 32 26.7545 27.9779 28.6947 21.7463H22.4359C21.0694 24.5295 18.2923 26.6962 14.8092 26.6962C9.78452 26.6962 5.81593 21.8348 5.81593 16C5.81593 10.1652 9.78299 5.34808 14.8092 5.34808Z" fill="#D9DADA"/>
<path d="M30.3359 0.697266V31.4156H56.0009V0.697266H30.3359ZM49.5504 4.93453L43.1684 12.7087L36.7864 4.93453H49.5504ZM34.5632 8.8941L40.4309 16.0442L34.5632 23.1913V8.89563V8.8941ZM36.7849 27.1539L43.1669 19.3782L49.5489 27.1539H36.7849ZM51.7736 23.1928L45.9044 16.0457L51.7736 8.89563V23.1928Z" fill="#D9DADA"/>
</svg>
