<svg width="900" height="120" viewBox="0 0 900 120" fill="none" xmlns="http://www.w3.org/2000/svg">
<g clip-path="url(#clip0_3379_1154)">
<path d="M56.0344 20.0544C69.3778 20.0544 79.7151 27.8438 84.8866 38.2887H108.734C101.565 14.7489 82.2203 0 56.0344 0C24.5158 0 0 26.3557 0 59.9971C0 93.6386 24.5158 119.994 56.0344 119.994C81.7192 119.994 101.23 104.913 108.567 81.5396H84.8866C79.7151 91.9788 69.2108 100.106 56.0344 100.106C37.0242 100.106 22.0106 81.8715 22.0106 59.9971C22.0106 38.1228 37.0184 20.0544 56.0344 20.0544Z" fill="#D9DADA"/>
<path d="M171.478 0.166016C138.623 0.166016 114.775 26.682 114.775 59.9972C114.775 93.3124 138.623 119.994 171.478 119.994C204.333 119.994 228.013 93.4784 228.013 59.9972C228.013 26.516 204.166 0.166016 171.478 0.166016ZM171.478 99.2818C152.301 99.2818 136.953 81.5453 136.953 60.0029C136.953 38.4605 152.295 20.89 171.478 20.89C190.661 20.89 205.836 38.6265 205.836 60.0029C205.836 81.3794 190.494 99.2818 171.478 99.2818Z" fill="#D9DADA"/>
<path d="M312.301 84.8592L265.268 2.98193H238.754V118.008H260.77V36.1312L307.965 118.008H334.485V2.98193H312.301V84.8592Z" fill="#D9DADA"/>
<path d="M343.791 23.3683H374.809V118.008H396.825V23.3683H427.843V2.98193H343.791V23.3683Z" fill="#D9DADA"/>
<path d="M459.067 68.2845H512.435V47.8982H459.067V23.3683H521.603V2.98193H437.051V118.008H522.772V97.6221H459.067V68.2845Z" fill="#D9DADA"/>
<path d="M611.213 84.8592L564.186 2.98193H537.666V118.008H559.682V36.1312L606.877 118.008H633.397V2.98193H611.213V84.8592Z" fill="#D9DADA"/>
<path d="M675.723 2.98193H653.707V118.008H675.723V2.98193Z" fill="#D9DADA"/>
<path d="M738.549 2.98193H695.686V118.008H738.549C770.235 118.008 790.748 95.6304 790.748 60.4952C790.748 25.36 770.736 2.98193 738.549 2.98193ZM738.549 97.6221H717.702V23.3683H738.549C763.399 23.3683 768.738 43.4226 768.738 60.3292C768.738 74.2539 764.735 97.6221 738.549 97.6221Z" fill="#D9DADA"/>
<path d="M802.898 2.61572V117.802H900V2.61572H802.898ZM875.593 18.5093L851.446 47.6637L827.299 18.5093H875.588H875.593ZM818.891 33.3555L841.092 60.1633L818.891 86.9711V33.3555ZM827.305 101.817L851.452 72.6629L875.599 101.817H827.31H827.305ZM884.007 86.9711L861.807 60.1633L884.007 33.3555V86.9711Z" fill="#D9DADA"/>
</g>
<defs>
<clipPath id="clip0_3379_1154">
<rect width="900" height="120" fill="white"/>
</clipPath>
</defs>
</svg>
